#!OML:ASF F:\VICON\USERDATA\INSTALL\rory3\rory3.ASF
:FULLY-SPECIFIED
:DEGREES
48
root -10.5859 17.0248 -21.2126 1.37584 -6.86944 -1.41677
lowerback 6.23735 2.35384 0.87972
upperback -0.293135 3.26854 1.7329
thorax -3.85087 1.62221 0.986398
lowerneck -15.098 -3.02985 -10.7084
upperneck 21.2636 -2.80477 5.45763
head 9.43956 -1.57573 3.32736
rclavicle -3.53091e-014 9.54166e-015
rhumerus -33.6175 -10.6977 -77.851
rradius 50.1883
rwrist -8.03205
rhand -16.4129 13.6704
rfingers 7.12502
rthumb 9.80184 -16.0814
lclavicle -3.53091e-014 9.54166e-015
lhumerus -48.5651 28.9134 67.2243
lradius 18.6707
lwrist -14.5859
lhand -23.4802 17.0328
lfingers 7.12502
lthumb 2.97932 46.9918
rfemur 6.66385 3.83967 21.9401
rtibia 45.9672
rfoot 13.9425 9.53483
rtoes -1.11078
lfemur -31.6841 -1.45262 -22.2534
ltibia 31.7527
lfoot -1.69374 -10.1913
ltoes 1.99787
49
root -10.5744 17.0269 -20.9656 0.940856 -6.68377 -0.866242
lowerback 6.7087 2.32222 0.321968
upperback -0.239358 3.18612 1.62905
thorax -4.08346 1.59057 1.17992
lowerneck -15.0049 -2.9971 -10.7432
upperneck 21.1091 -2.74374 5.40056
head 9.36297 -1.55449 3.31853
rclavicle -2.52457e-014 1.31198e-014
rhumerus -33.9938 -10.8105 -77.7998
rradius 50.1953
rwrist -8.16719
rhand -17.1233 13.2268
rfingers 7.12502
rthumb 9.11636 -16.5562
lclavicle -2.52457e-014 1.31198e-014
lhumerus -48.7571 29.5655 66.7348
lradius 18.7082
lwrist -14.4171
lhand -24.7051 16.4532
lfingers 7.12502
lthumb 1.79638 46.4254
rfemur 5.00861 3.59656 21.0538
rtibia 49.77
rfoot 13.8773 10.5276
rtoes 3.96625
lfemur -30.836 -1.55444 -23.0956
ltibia 32.5614
lfoot -2.26143 -11.0624
ltoes 4.73213
50
root -10.5687 17.0366 -20.7181 0.566829 -6.92846 -0.424695
lowerback 7.00051 2.37577 -0.168208
upperback -0.164911 3.21566 1.53932
thorax -4.19273 1.61406 1.34747
lowerneck -14.8742 -2.89729 -10.8582
upperneck 21.1245 -2.58752 5.38687
head 9.33193 -1.49429 3.35342
rclavicle -2.51711e-014 -1.03368e-014
rhumerus -34.213 -11.0162 -77.7709
rradius 49.8878
rwrist -7.8919
rhand -17.0726 13.4816
rfingers 7.12502
rthumb 9.16529 -16.2992
lclavicle -2.51711e-014 -1.03368e-014
lhumerus -48.7522 29.4512 67.0379
lradius 19.2925
lwrist -13.1577
lhand -25.2793 16.5292
lfingers 7.12502
lthumb 1.24179 46.5053
rfemur 3.31071 3.73044 20.3183
rtibia 53.384
rfoot 12.6188 10.8222
rtoes 6.38235
lfemur -29.8361 -1.35832 -23.7869
ltibia 33.1837
lfoot -3.41109 -10.6104
ltoes 5.28858
51
root -10.5628 17.0574 -20.4729 0.219015 -7.21805 0.13289
lowerback 7.18618 2.47166 -0.750176
upperback 0.0931889 3.28618 1.39756
thorax -4.05538 1.65773 1.5169
lowerneck -15.3482 -2.80367 -11.0413
upperneck 21.2222 -2.39947 5.57303
head 9.44131 -1.39712 3.47445
rclavicle -5.19325e-015 3.57812e-015
rhumerus -34.0085 -11.3423 -77.8199
rradius 49.3934
rwrist -7.61358
rhand -16.6402 13.9234
rfingers 7.12502
rthumb 9.58247 -15.8387
lclavicle -5.19325e-015 3.57812e-015
lhumerus -48.2428 29.3119 67.6687
lradius 20.078
lwrist -12.0929
lhand -25.0308 16.1177
lfingers 7.12502
lthumb 1.48184 46.0923
rfemur 1.49642 3.83883 19.4512
rtibia 56.7424
rfoot 12.3058 9.57838
rtoes 8.54932
lfemur -28.7958 -1.16521 -24.6316
ltibia 33.6312
lfoot -4.22605 -10.3027
ltoes 6.74445
52
root -10.5549 17.0756 -20.2299 -0.118318 -7.17941 0.705405
lowerback 7.33624 2.55286 -1.22954
upperback 0.370532 3.34195 1.17476
thorax -3.86763 1.68946 1.54897
lowerneck -15.4812 -2.82315 -10.9692
upperneck 20.8712 -2.41967 5.56537
head 9.34388 -1.39254 3.45038
rclavicle 6.5102e-015 -1.59028e-015
rhumerus -33.7646 -11.9084 -77.9256
rradius 48.7496
rwrist -7.38077
rhand -16.3122 14.3042
rfingers 7.12502
rthumb 9.89897 -15.4431
lclavicle 6.5102e-015 -1.59028e-015
lhumerus -47.4869 29.0283 68.2105
lradius 20.5237
lwrist -11.262
lhand -24.5812 15.5805
lfingers 7.12502
lthumb 1.91607 45.5517
rfemur -0.361323 3.60035 18.5958
rtibia 59.8555
rfoot 11.8148 7.59081
rtoes 9.25831
lfemur -27.6845 -1.30238 -25.514
ltibia 33.8462
lfoot -4.7847 -10.475
ltoes 8.55874
53
root -10.5419 17.0916 -19.9903 -0.28081 -6.96889 1.16307
lowerback 7.45923 2.53299 -1.47781
upperback 0.464754 3.28385 0.949929
thorax -3.83708 1.66193 1.45885
lowerneck -15.2894 -2.81397 -10.7902
upperneck 20.4205 -2.43844 5.44855
head 9.14943 -1.39312 3.36946
rclavicle 1.16786e-014 1.55052e-014
rhumerus -33.7082 -12.2803 -78.0923
rradius 48.0058
rwrist -6.99278
rhand -16.521 14.5478
rfingers 7.12502
rthumb 9.69749 -15.209
lclavicle 1.16786e-014 1.55052e-014
lhumerus -46.7954 28.2686 69.0376
lradius 21.028
lwrist -9.88621
lhand -24.7365 15.8587
lfingers 7.12502
lthumb 1.76608 45.8311
rfemur -2.30349 3.21041 17.8647
rtibia 62.7373
rfoot 10.2719 5.4078
rtoes 7.19834
lfemur -26.6438 -1.80427 -26.2444
ltibia 33.7868
lfoot -5.07133 -9.99919
ltoes 10.6536
54
root -10.5267 17.1163 -19.7521 -0.34373 -6.74792 1.74167
lowerback 7.67105 2.48065 -2.02363
upperback 0.33819 3.16012 0.848027
thorax -4.10643 1.61214 1.66017
lowerneck -14.9413 -2.74164 -10.8853
upperneck 20.1291 -2.33836 5.40308
head 8.97715 -1.35687 3.37754
rclavicle -1.15792e-014 3.97569e-016
rhumerus -34.0159 -12.3361 -77.984
rradius 47.2414
rwrist -6.59281
rhand -16.4812 15.2221
rfingers 7.12502
rthumb 9.73589 -14.5329
lclavicle -1.15792e-014 3.97569e-016
lhumerus -46.5243 27.7451 69.7281
lradius 21.5599
lwrist -8.86755
lhand -24.6142 15.3766
lfingers 7.12502
lthumb 1.88413 45.348
rfemur -4.32716 2.73272 16.9557
rtibia 65.2965
rfoot 8.69174 3.07438
rtoes 5.8654
lfemur -25.6425 -2.39303 -27.0877
ltibia 33.6163
lfoot -5.56827 -9.21417
ltoes 11.3759
